<?xml version="1.0" encoding="utf-8"?>
<!-- Generator: Adobe Illustrator 23.1.1, SVG Export Plug-In . SVG Version: 6.00 Build 0)  -->
<svg version="1.1" id="Layer_1" xmlns="http://www.w3.org/2000/svg" xmlns:xlink="http://www.w3.org/1999/xlink" x="0px" y="0px"
	 viewBox="0 0 584 113" style="enable-background:new 0 0 584 113;" xml:space="preserve">
<style type="text/css">
	.st0{opacity:0.5;fill:#07706D;}
	.st1{opacity:0.5;fill:#85BD48;}
	.st2{opacity:0.5;}
	.st3{fill:#85BD48;}
	.st4{opacity:0.5;fill-rule:evenodd;clip-rule:evenodd;fill:#85BD48;}
	.st5{fill:#07706D;}
</style>
<title>Group 8</title>
<desc>Created with Sketch.</desc>
<circle class="st0" cx="528" cy="60" r="4"/>
<circle id="Oval-5-Copy-3" class="st1" cx="418.5" cy="54.5" r="1.5"/>
<circle class="st1" cx="466.5" cy="73.5" r="1.5"/>
<circle class="st1" cx="563.5" cy="85.5" r="1.5"/>
<circle class="st1" cx="577" cy="73" r="6"/>
<circle class="st0" cx="432.5" cy="83.5" r="13.5"/>
<circle class="st1" cx="446" cy="87" r="6"/>
<g transform="translate(66.000000, 56.500000) scale(1, -1) translate(-66.000000, -56.500000) translate(60.000000, 51.000000)" class="st2">
	<path class="st3" d="M427.6,26.1L427.6,26.1c0.4-0.4,0.4-1,0-1.4l-7.8-7.8c-0.4-0.4-1-0.4-1.4,0l0,0c-0.4,0.4-0.4,1,0,1.4l7.8,7.8
		C426.6,26.5,427.2,26.5,427.6,26.1z"/>
	<path class="st3" d="M427.6,16.9L427.6,16.9c0.4,0.4,0.4,1,0,1.4l-7.8,7.8c-0.4,0.4-1,0.4-1.4,0l0,0c-0.4-0.4-0.4-1,0-1.4l7.8-7.8
		C426.6,16.5,427.2,16.5,427.6,16.9z"/>
</g>
<g transform="translate(97.000000, 10.500000) scale(1, -1) translate(-97.000000, -10.500000) translate(93.000000, 6.000000)" class="st2">
	<path class="st3" d="M424.2-68.3L424.2-68.3c0.4-0.4,0.4-1,0-1.4l-4.9-4.9c-0.4-0.4-1-0.4-1.4,0l0,0c-0.4,0.4-0.4,1,0,1.4l4.9,4.9
		C423.2-67.9,423.8-67.9,424.2-68.3z"/>
	<path class="st3" d="M424.2-74.7L424.2-74.7c0.4,0.4,0.4,1,0,1.4l-4.9,4.9c-0.4,0.4-1,0.4-1.4,0l0,0c-0.4-0.4-0.4-1,0-1.4l4.9-4.9
		C423.2-75.1,423.8-75.1,424.2-74.7z"/>
</g>
<circle class="st1" cx="571" cy="32" r="3"/>
<path id="Stroke-26" class="st1" d="M372.2,44.8c0,1.2-1,2.2-2.2,2.2c-1.2,0-2.2-1-2.2-2.2c0-1.2,1-2.2,2.2-2.2
	C371.2,42.6,372.2,43.6,372.2,44.8z"/>
<path id="Fill-30" class="st4" d="M391.2,68.4c0,2-1.6,3.6-3.6,3.6c-2,0-3.6-1.6-3.6-3.6c0-2,1.6-3.6,3.6-3.6
	C389.6,64.8,391.2,66.4,391.2,68.4"/>
<circle class="st0" cx="173.7" cy="60.9" r="4"/>
<circle class="st0" cx="43.8" cy="21.3" r="4"/>
<circle id="Oval-5-Copy-3_1_" class="st1" cx="64.2" cy="66.4" r="1.5"/>
<circle class="st1" cx="112.2" cy="47.4" r="1.5"/>
<circle class="st1" cx="209.2" cy="35.4" r="1.5"/>
<circle class="st1" cx="222.7" cy="47.9" r="6"/>
<circle class="st0" cx="56.8" cy="85.9" r="9"/>
<circle class="st1" cx="91.7" cy="33.9" r="6"/>
<g transform="translate(66.000000, 56.500000) scale(1, -1) translate(-66.000000, -56.500000) translate(60.000000, 51.000000)" class="st2">
	<path class="st3" d="M71.9-23l-7.8,7.8c-0.4,0.4-0.4,1,0,1.4l0,0c0.4,0.4,1,0.4,1.4,0l7.8-7.8c0.4-0.4,0.4-1,0-1.4l0,0
		C72.9-23.4,72.3-23.4,71.9-23z"/>
	<path class="st3" d="M71.9-13.8l-7.8-7.8c-0.4-0.4-0.4-1,0-1.4l0,0c0.4-0.4,1-0.4,1.4,0l7.8,7.8c0.4,0.4,0.4,1,0,1.4l0,0
		C72.9-13.4,72.3-13.4,71.9-13.8z"/>
</g>
<g transform="translate(97.000000, 10.500000) scale(1, -1) translate(-97.000000, -10.500000) translate(93.000000, 6.000000)" class="st2">
	<path class="st3" d="M68.5-22.6l-4.9,4.9c-0.4,0.4-0.4,1,0,1.4l0,0c0.4,0.4,1,0.4,1.4,0l4.9-4.9c0.4-0.4,0.4-1,0-1.4l0,0
		C69.5-22.9,68.9-22.9,68.5-22.6z"/>
	<path class="st3" d="M68.5-16.2l-4.9-4.9c-0.4-0.4-0.4-1,0-1.4l0,0c0.4-0.4,1-0.4,1.4,0l4.9,4.9c0.4,0.4,0.4,1,0,1.4l0,0
		C69.5-15.8,68.9-15.8,68.5-16.2z"/>
</g>
<circle class="st0" cx="216.7" cy="88.9" r="3"/>
<path id="Stroke-26_1_" class="st1" d="M15.7,78.2c-1.2,0-2.2-1-2.2-2.2s1-2.2,2.2-2.2c1.2,0,2.2,1,2.2,2.2S16.9,78.2,15.7,78.2z"/>
<path id="Fill-30_1_" class="st4" d="M36.9,52.5c0,2-1.6,3.6-3.6,3.6s-3.6-1.6-3.6-3.6c0-2,1.6-3.6,3.6-3.6S36.9,50.5,36.9,52.5"/>
<path id="Fill-34" class="st4" d="M357.3,18.6l-1.9-1.9l1.9-1.9c0.5-0.5,0.5-1.3,0-1.8c-0.5-0.5-1.3-0.5-1.8,0l-1.9,1.9l-1.9-1.9
	c-0.5-0.5-1.3-0.5-1.8,0c-0.5,0.5-0.5,1.3,0,1.8l1.9,1.9l-1.9,1.9c-0.5,0.5-0.5,1.3,0,1.8c0.5,0.5,1.3,0.5,1.8,0l1.9-1.9l1.9,1.9
	c0.5,0.5,1.3,0.5,1.8,0C357.8,19.9,357.8,19.1,357.3,18.6"/>
<g>
	<path class="st5" d="M292,17.3v8.8c-0.4,0.4-1.4,1.7-2.7,6c0,0.1-0.2,0.2-0.3,0.1c-0.8-0.6-4.2-2.8-9.9-0.8c-0.1,0-0.1,0.2,0,0.3
		c0.8,0.3,2.6,1.2,3.7,2.4c0.1,0.1,0,0.3-0.1,0.3c-2.2-0.1-14.4,0.3-23.8,15.1c-0.1,0.1,0.1,0.3,0.2,0.2c2.3-1.6,10.7-7.1,18-6.5
		c0.2,0,0.2,0.2,0,0.3c-2.6,1.2-14.3,7.6-17,25.9c0,0.2,0.2,0.3,0.3,0.1c1.6-2.9,8.3-13.8,17.5-17.6c0.1,0,0.3,0.1,0.2,0.3
		c-1.8,2.2-8.8,12-7.3,28c0,0.2,0.3,0.2,0.3,0c0.9-3.1,5-15.3,11.8-22.7c0.1-0.1,0.3,0,0.3,0.1c-0.4,2.8-2.5,16.5-0.1,27.3
		c0,0.2,0.3,0.1,0.3,0c0.4-4.1,2.1-20.1,5.7-25c0,0,0.1,0,0.1,0c0,0,0,0,0.1,0l0.8,9.8h-1.3l1,13.2h-1.3l0.6,13
		c-20.3-1.5-36.4-18.4-36.4-39.1C252.9,34.9,270.4,17.3,292,17.3"/>
	<path class="st3" d="M292,17.3v8.8c0.4,0.4,1.4,1.7,2.7,6c0,0.1,0.2,0.2,0.3,0.1c0.8-0.6,4.2-2.8,9.9-0.8c0.1,0,0.1,0.2,0,0.3
		c-0.8,0.3-2.6,1.2-3.7,2.4c-0.1,0.1,0,0.3,0.1,0.3c2.2-0.1,14.4,0.3,23.8,15.1c0.1,0.1-0.1,0.3-0.2,0.2c-2.3-1.6-10.7-7.1-18-6.5
		c-0.2,0-0.2,0.2,0,0.3c2.6,1.2,14.3,7.6,17,25.9c0,0.2-0.2,0.3-0.3,0.1c-1.6-2.9-8.3-13.8-17.5-17.6c-0.1,0-0.3,0.1-0.2,0.3
		c1.8,2.2,8.8,12,7.3,28c0,0.2-0.3,0.2-0.3,0c-0.9-3.1-5-15.3-11.8-22.7c-0.1-0.1-0.3,0-0.3,0.1c0.4,2.8,2.5,16.5,0.1,27.3
		c0,0.2-0.3,0.1-0.3,0c-0.4-4.1-2.1-20.1-5.7-25c0,0-0.1,0-0.1,0c0,0,0,0-0.1,0l-0.8,9.8h1.3l-1,13.2h1.3l-0.6,13
		c20.3-1.5,36.4-18.4,36.4-39.1C331.1,34.9,313.6,17.3,292,17.3"/>
</g>
</svg>
