<?xml version="1.0" encoding="utf-8"?>
<!-- Generator: Adobe Illustrator 23.1.1, SVG Export Plug-In . SVG Version: 6.00 Build 0)  -->
<svg version="1.1" id="Capa_1" xmlns="http://www.w3.org/2000/svg" xmlns:xlink="http://www.w3.org/1999/xlink" x="0px" y="0px"
	 viewBox="0 0 480 480" style="enable-background:new 0 0 480 480;" xml:space="preserve">
<style type="text/css">
	.st0{fill:#85bd48;}
</style>
<g>
	<g>
		<path class="st0" d="M412.1,216.2l-20.2-11.9c-0.6-2.4-1.3-4.9-2-7.3l14.4-21.8c1.5-2.3,1.8-5.2,0.6-7.8
			c-5-10.9-11.2-21.2-18.3-30.8c-1.6-2.1-4.2-3.3-6.8-3.2l-26.8,1.3c-1.7-1.7-3.4-3.4-5.2-5.1l1.3-26c0.1-2.7-1.1-5.4-3.4-7
			c-9.9-7-20.4-13-31.5-17.8c-2.4-1.1-5.2-0.9-7.5,0.6l-22.5,14.2c-2.4-0.7-4.9-1.3-7.4-1.9l-12.3-23.3c-1.4-2.6-4.1-4.3-7.1-4.3
			h-34.7c-3,0-5.7,1.6-7.1,4.3l-12.2,23.3c-2.5,0.6-5,1.2-7.4,1.9l-22.5-14.2c-2.2-1.4-5.1-1.6-7.5-0.6
			c-11.1,4.9-21.6,10.9-31.5,17.9c-2.2,1.6-3.5,4.2-3.4,6.9l1.3,26c-1.8,1.6-3.5,3.3-5.2,5.1l-26.9-1.3c-2.7-0.1-5.2,1.1-6.8,3.2
			c-7.1,9.6-13.3,20-18.3,30.8c-1.2,2.5-0.9,5.4,0.6,7.8L90.2,197c-0.7,2.4-1.4,4.8-2,7.3L68,216.2c-2.4,1.4-3.9,4.1-3.9,6.9V257
			c0,2.8,1.5,5.5,3.9,6.9l20.2,11.9c0.6,2.4,1.3,4.9,2,7.3l-14.4,21.8c-1.5,2.3-1.8,5.2-0.6,7.8c5,10.9,11.2,21.2,18.3,30.8
			c1.6,2.1,4.2,3.3,6.8,3.2l26.8-1.3c1.7,1.7,3.4,3.4,5.2,5.1l-1.3,26c-0.1,2.7,1.1,5.4,3.4,7c9.9,7,20.4,13,31.5,17.9
			c2.4,1.1,5.2,0.9,7.5-0.6l22.5-14.2c2.4,0.7,4.9,1.3,7.4,1.9l12.3,23.3c1.4,2.6,4.1,4.3,7.1,4.3h34.7c3,0,5.7-1.6,7.1-4.3
			l12.2-23.3c2.5-0.6,5-1.2,7.4-1.9l22.5,14.2c2.2,1.4,5.1,1.6,7.5,0.6c11.1-4.9,21.6-10.9,31.5-17.9c2.2-1.6,3.5-4.2,3.4-6.9
			l-1.3-26c1.8-1.6,3.5-3.3,5.2-5.1l26.9,1.3c2.7,0.1,5.2-1.1,6.8-3.2c7.1-9.6,13.3-20,18.3-30.8c1.2-2.5,0.9-5.4-0.6-7.8L389.9,283
			c0.7-2.4,1.4-4.8,2-7.3l20.2-11.9c2.4-1.4,3.9-4.1,3.9-6.9v-33.9C416,220.2,414.5,217.6,412.1,216.2z M400,252.4l-19.3,11.3
			c-1.9,1.1-3.3,3-3.8,5.2c-1,4.4-2.1,8.7-3.5,12.9c-0.8,2.3-0.4,4.9,0.9,6.9l0,0l14,21.2c-3.6,7.2-7.7,14.1-12.2,20.6l-26.2-1.3
			c-2.3-0.1-4.6,0.9-6.2,2.5c-3,3.2-6.2,6.4-9.5,9.3c-1.8,1.6-2.8,4-2.7,6.4l1.3,25.3c-6.8,4.5-13.9,8.6-21.3,12.1L289.6,371
			c-2-1.3-4.4-1.6-6.7-0.9c-4.3,1.3-8.8,2.5-13.2,3.4c-2.3,0.5-4.3,2-5.4,4.1L252.6,400h-25.1l-11.7-22.3c-1.1-2.1-3.1-3.6-5.4-4.1
			c-4.5-1-9-2.1-13.2-3.4c-2.2-0.7-4.7-0.4-6.7,0.9l-21.9,13.8c-7.4-3.5-14.5-7.5-21.3-12.1l1.3-25.3c0.1-2.4-0.9-4.8-2.7-6.4
			c-3.3-2.9-6.5-6.1-9.5-9.3c-1.6-1.7-3.9-2.6-6.2-2.5l-26.2,1.3c-4.6-6.5-8.7-13.4-12.3-20.6l14-21.2c1.3-2,1.7-4.6,0.9-6.9
			c-1.4-4.2-2.6-8.5-3.5-12.9c-0.5-2.2-1.8-4-3.8-5.2L80,252.4v-24.8l19.3-11.3c1.9-1.1,3.3-3,3.8-5.2c1-4.4,2.1-8.7,3.5-12.9
			c0.8-2.3,0.4-4.9-0.9-6.9l-14-21.2c3.6-7.2,7.7-14.1,12.2-20.6l26.2,1.3c2.4,0.1,4.6-0.8,6.2-2.5c3-3.2,6.2-6.4,9.5-9.3
			c1.8-1.6,2.8-4,2.7-6.4l-1.3-25.3c6.8-4.5,13.9-8.6,21.3-12.1l21.9,13.8c2,1.2,4.4,1.6,6.7,0.9c4.3-1.3,8.8-2.5,13.2-3.4
			c2.3-0.5,4.3-2,5.4-4.1L227.5,80h25.1l11.7,22.3c1.1,2.1,3.1,3.6,5.4,4.1c4.5,1,9,2.1,13.2,3.4c2.2,0.7,4.7,0.4,6.7-0.9l21.9-13.8
			c7.4,3.5,14.5,7.5,21.3,12.1l-1.3,25.3c-0.1,2.4,0.9,4.8,2.7,6.4c3.3,2.9,6.5,6.1,9.5,9.3c1.6,1.7,3.9,2.6,6.2,2.5l26.2-1.3
			c4.6,6.5,8.7,13.4,12.3,20.6l-14,21.2c-1.3,2-1.7,4.6-0.9,6.9c1.4,4.2,2.6,8.5,3.5,12.9c0.5,2.2,1.8,4,3.8,5.2l19.3,11.3
			L400,252.4L400,252.4z"/>
	</g>
</g>
<g>
	<g>
		<path class="st0" d="M240,120c-66.3,0-120,53.7-120,120s53.7,120,120,120s120-53.7,120-120C360,173.8,306.3,120.1,240,120z
			 M240,344c-57.4,0-104-46.6-104-104s46.6-104,104-104s104,46.6,104,104C344,297.4,297.4,344,240,344z"/>
	</g>
</g>
<g>
	<g>
		<path class="st0" d="M408,32v48h-48v16h56c4.4,0,8-3.6,8-8c0,0,0,0,0,0V32C424,32,408,32,408,32z"/>
	</g>
</g>
<g>
	<g>
		<path class="st0" d="M64,384c-4.4,0-8,3.6-8,8c0,0,0,0,0,0v56h16v-48h48v-16H64z"/>
	</g>
</g>
<g>
	<g>
		<path class="st0" d="M41.4,105.3C14.4,145.1,0,192,0,240c-0.1,48.1,14.3,95,41.4,134.8l13.2-9c-69.4-102.4-42.7-241.7,59.7-311.2
			c75.9-51.5,175.6-51.5,251.5,0l9-13.2C265.1-33,115.8-4.4,41.4,105.3z"/>
	</g>
</g>
<g>
	<g>
		<path class="st0" d="M440.2,107.6l-13.3,8.8c68.2,103.2,39.9,242.2-63.3,310.4c-75.7,50.1-174.2,49.5-249.3-1.5l-9,13.2
			c109.7,74.4,259,45.8,333.4-63.9C493.2,294.2,493.9,188.7,440.2,107.6z"/>
	</g>
</g>
</svg>
