<?xml version="1.0" encoding="utf-8"?>
<!-- Generator: Adobe Illustrator 23.1.1, SVG Export Plug-In . SVG Version: 6.00 Build 0)  -->
<svg version="1.1" id="Capa_1" xmlns="http://www.w3.org/2000/svg" xmlns:xlink="http://www.w3.org/1999/xlink" x="0px" y="0px"
	 viewBox="0 0 512 512" style="enable-background:new 0 0 512 512;" xml:space="preserve">
<style type="text/css">
	.st0{fill:#0083cd;}
</style>
<g>
	<g>
		<path class="st0" d="M443.7,80.3C399.6,36.3,341.1,12,278.8,12c-5.5,0-10,4.5-10,10v223.2c0,2.7,1.1,5.2,2.9,7.1l157.9,157.9
			c2,2,4.5,2.9,7.1,2.9s5.1-1,7.1-2.9c44.1-44.1,68.3-102.6,68.3-164.9C512,182.9,487.7,124.4,443.7,80.3z M288.8,32.2
			c18,0.8,35.4,3.9,52,9l-52,52V32.2z M288.8,121.4c0.1-0.1,0.3-0.2,0.4-0.4l72.3-72.3c10.4,4.4,20.3,9.6,29.8,15.5L288.8,166.7
			V121.4z M288.8,241.1V195L408,75.7c8.5,6.5,16.5,13.6,23.9,21.3l-92.6,92.6c-3.9,3.9-3.9,10.2,0,14.1c2,2,4.5,2.9,7.1,2.9
			s5.1-1,7.1-2.9l91.8-91.8c6.8,8.5,12.9,17.4,18.4,26.9L325.1,277.4L288.8,241.1z M339.2,291.6l133.9-133.9
			c4.8,10.7,8.8,21.9,11.9,33.4L361.9,314.2L339.2,291.6z M436.5,388.8l-23.7-23.7l74.4-74.4C479.3,327.1,462,360.8,436.5,388.8z
			 M491.3,258.3l-92.7,92.7L376,328.3l113.8-113.8c1.5,10,2.2,20.3,2.2,30.7c0,4.3-0.1,8.5-0.4,12.7
			C491.5,258.1,491.4,258.2,491.3,258.3z"/>
	</g>
</g>
<g>
	<g>
		<path class="st0" d="M398.2,417.5L243.2,262.6V43.5c0-5.5-4.5-10-10-10c-62.3,0-120.9,24.3-164.9,68.3C24.3,145.9,0,204.5,0,266.8
			s24.3,120.9,68.3,164.9c44.1,44.1,102.6,68.3,164.9,68.3c62.3,0,120.9-24.3,164.9-68.3C402.1,427.8,402.1,421.4,398.2,417.5z
			 M233.2,480C115.7,480,20,384.3,20,266.8c0-114.2,90.3-207.8,203.2-213v213c0,0.8,0.1,1.5,0.3,2.3c0,0,0,0,0,0l48.7,207.4
			C259.5,478.8,246.4,480,233.2,480z M291.7,471.9L251,298.7l125.8,125.8C352.2,446.9,323.1,463,291.7,471.9z"/>
	</g>
</g>
<g>
	<g>
		<path class="st0" d="M326.8,216.3c-1.9-1.9-4.4-2.9-7.1-2.9s-5.2,1.1-7.1,2.9c-1.9,1.9-2.9,4.4-2.9,7.1s1.1,5.2,2.9,7.1
			s4.4,2.9,7.1,2.9s5.2-1.1,7.1-2.9s2.9-4.4,2.9-7.1S328.7,218.1,326.8,216.3z"/>
	</g>
</g>
<g>
	<g>
		<path class="st0" d="M57.5,256.4C57.5,256.4,57.5,256.4,57.5,256.4c-5.5,0-10,4.4-10,10v0.4c0,5.5,4.5,10,10,10s10-4.5,10-10v-0.3
			C67.5,261,63.1,256.5,57.5,256.4z"/>
	</g>
</g>
<g>
	<g>
		<path class="st0" d="M155.1,109c-2.7-4.8-8.8-6.5-13.6-3.7c-43.9,25-76.1,67.4-88.4,116.2c-1.3,5.4,1.9,10.8,7.3,12.1
			c0.8,0.2,1.6,0.3,2.4,0.3c4.5,0,8.6-3,9.7-7.6c10.9-43.6,39.7-81.4,78.9-103.7C156.1,119.9,157.8,113.8,155.1,109z"/>
	</g>
</g>
</svg>
