<?xml version="1.0" encoding="utf-8"?>
<!-- Generator: Adobe Illustrator 23.1.1, SVG Export Plug-In . SVG Version: 6.00 Build 0)  -->
<svg version="1.1" id="Capa_1" xmlns="http://www.w3.org/2000/svg" xmlns:xlink="http://www.w3.org/1999/xlink" x="0px" y="0px"
	 viewBox="0 0 480 480" style="enable-background:new 0 0 480 480;" xml:space="preserve">
<style type="text/css">
	.st0{fill:#FFFFFF;}
</style>
<g>
	<g>
		<path class="st0" d="M479.9,471l-56-464c-0.5-4-3.9-7-7.9-7H64c-4,0-7.5,3-7.9,7l-56,464c-0.5,4.4,2.6,8.4,7,8.9
			c0.3,0,0.6,0.1,1,0.1h464c4.4,0,8-3.6,8-8C480,471.7,480,471.4,479.9,471z M71.1,16h337.8l23.2,192H47.9L71.1,16z M46,224h388
			l23.2,192H22.8L46,224z M17,464l3.9-32h438.2l3.9,32H17z"/>
	</g>
</g>
<g>
	<g>
		<path class="st0" d="M272,256H160c-4.4,0-8,3.6-8,8v128c0,4.4,3.6,8,8,8h112c4.4,0,8-3.6,8-8V264C280,259.6,276.4,256,272,256z
			 M264,384h-96V272h96V384z"/>
	</g>
</g>
<g>
	<g>
		<path class="st0" d="M240,296h-48c-4.4,0-8,3.6-8,8v48c0,4.4,3.6,8,8,8h48c4.4,0,8-3.6,8-8v-48C248,299.6,244.4,296,240,296z
			 M232,344h-32v-32h32V344z"/>
	</g>
</g>
<g>
	<g>
		<path class="st0" d="M372.2,240H304c-4.4,0-8,3.6-8,8v144c0,4.4,3.6,8,8,8h112c4.4,0,8-3.6,8-8V291.8
			C424,263.2,400.8,240,372.2,240z M408,384h-96V256h60.2c19.8,0,35.8,16,35.8,35.8V384z"/>
	</g>
</g>
<g>
	<g>
		<path class="st0" d="M384,296h-48c-4.4,0-8,3.6-8,8v48c0,4.4,3.6,8,8,8h48c4.4,0,8-3.6,8-8v-48C392,299.6,388.4,296,384,296z
			 M376,344h-32v-32h32V344z"/>
	</g>
</g>
<g>
	<g>
		<path class="st0" d="M384,80L384,80l0-32c0-8.8-7.2-16-16-16h-16c-8.8,0-16,7.2-16,16v32c-8.8,0-16,7.2-16,16v80
			c0,8.8,7.2,16,16,16h48c8.8,0,16-7.2,16-16V96C400,87.2,392.8,80,384,80z M384,176h-48v-16h48V176z M384,144h-48v-16h48V144z
			 M384,112h-48V96c8.8,0,16-7.2,16-16V48h16v32c0,8.8,7.2,16,16,16V112z"/>
	</g>
</g>
<g>
	<g>
		<path class="st0" d="M128,288H64c-4.4,0-8,3.6-8,8v96c0,4.4,3.6,8,8,8h64c4.4,0,8-3.6,8-8v-96C136,291.6,132.4,288,128,288z
			 M120,384H72v-16h48V384z M120,352H72v-16h48V352z M120,320H72v-16h48V320z"/>
	</g>
</g>
<g>
	<g>
		<path class="st0" d="M272,136h-24v-32c0-4.4-3.6-8-8-8h-24V64c0-4.4-3.6-8-8-8h-64c-4.4,0-8,3.6-8,8v32h-24c-4.4,0-8,3.6-8,8v32
			H80c-4.4,0-8,3.6-8,8v40c0,4.4,3.6,8,8,8h192c4.4,0,8-3.6,8-8v-40C280,139.6,276.4,136,272,136z M232,112v24h-48v-24H232z M152,72
			h48v24h-48V72z M120,112h48v24h-48V112z M136,176H88v-24h48V176z M200,176h-48v-24h48V176z M264,176h-48v-24h48V176z"/>
	</g>
</g>
</svg>
