<svg xmlns="http://www.w3.org/2000/svg" viewBox="0 0 255.68 201.62"><defs><style>.cls-1{fill:#fff;}</style></defs><g id="Layer_2" data-name="Layer 2"><g id="Layer_1-2" data-name="Layer 1"><path class="cls-1" d="M154.62,72.86a18,18,0,0,0-3.44-1.49,20.5,20.5,0,0,0-9.44-.69,22.79,22.79,0,0,0-4.08,1.06l-.41.14a22.93,22.93,0,0,0-2.17,1c-.62.31-1.23.65-1.84,1a45.7,45.7,0,0,0-4.12,2.83,88.14,88.14,0,0,1-.42-22s0,0,.05,0c3.26,2.06,2.34,7.81,1.66,9.44a0,0,0,0,0,.06,0,10.15,10.15,0,0,0,1.25-11.46s0-.06.05,0a9.86,9.86,0,0,1,1.47,1.5A9,9,0,0,1,135.08,59a13.55,13.55,0,0,1,0,2.21c0,.17,0,.33,0,.49s0,0,0,0h0a9.4,9.4,0,0,0,0-8.59,10.68,10.68,0,0,0-1.84-2.53c-.23-.23-.48-.47-.74-.69a0,0,0,0,1,0-.06,5.31,5.31,0,0,1,.71.21,6.58,6.58,0,0,1,1.84,1,7.71,7.71,0,0,1,2.58,3.47,8.85,8.85,0,0,1,.59,3.18s.06,0,.06,0a7.91,7.91,0,0,0-.65-6.49,7.63,7.63,0,0,0-2.58-2.49,8.1,8.1,0,0,0-1.84-.83,5.22,5.22,0,0,0-.88-.19,0,0,0,0,1,0-.07l.88-.05a9.45,9.45,0,0,1,1.84.15,6.85,6.85,0,0,1,2.58,1,5.55,5.55,0,0,1,1.72,1.84,0,0,0,0,0,.07,0,5.2,5.2,0,0,0-1.79-3.47,6.55,6.55,0,0,0-2.58-1.36,7.38,7.38,0,0,0-1.84-.27,6,6,0,0,0-2.31.41,0,0,0,0,1,0,0,4.4,4.4,0,0,1,2.35-1.67,5.32,5.32,0,0,1,1.84-.21,4.24,4.24,0,0,1,1.51.35s.06,0,0,0A5.69,5.69,0,0,0,135.08,43a4.88,4.88,0,0,0-1.84-.61,4.62,4.62,0,0,0-4.45,2.21,0,0,0,0,1,0,0c-.21-.38-.42-.81-.62-1.26a14.86,14.86,0,0,1-1-3.36,0,0,0,0,0-.06,0,14.69,14.69,0,0,1-1,3.38c-.19.44-.4.86-.61,1.24a0,0,0,0,1,0,0c-2-3-5.61-2.9-7.84-.35,0,0,0,.07,0,0a4.82,4.82,0,0,1,5.69,1.53s0,0,0,0a6.78,6.78,0,0,0-7.32,1.82,5.22,5.22,0,0,0-1.19,2.87s0,.06.06,0a5.3,5.3,0,0,1,1.13-1.39,7.48,7.48,0,0,1,5.89-1.58s.05.06,0,.07a7.78,7.78,0,0,0-5.89,4.72,8.51,8.51,0,0,0-.06,5.28s.06,0,.06,0v-.15c0-2.87,1.67-6.7,5.72-7.68a0,0,0,0,1,0,.06,9.58,9.58,0,0,0-2.61,11.81,0,0,0,0,0,.07,0c-.2-2.2-.36-6.12,3.28-9.08a0,0,0,0,1,0,0,10.14,10.14,0,0,0,1.24,11.46s.08,0,.06,0c-.68-1.63-1.6-7.38,1.66-9.44,0,0,0,0,0,0a88.14,88.14,0,0,1-.42,22,33.33,33.33,0,0,0-8.12-4.82l-1-.35a21.56,21.56,0,0,0-7.67-1.09,19.83,19.83,0,0,0-7.92,2c-.32.15-.58.3-.78.41a.08.08,0,0,0,.07.14l.71-.21a22,22,0,0,1,7.92-.78,23.55,23.55,0,0,1,7.67,2.07,40.53,40.53,0,0,1,9.14,6c-3.87,3.38-7.14,6.67-9.14,7.83l-.29.16a2.14,2.14,0,0,0-3.81.76,2.05,2.05,0,0,0,.42,1.84,3.06,3.06,0,0,0,3.68.54c2.68-1.13,6-4.68,10.12-8.44l1-.94c.35.31.7.62,1,.94,1.86,1.7,3.56,3.36,5.12,4.77.63.58,1.25,1.12,1.84,1.6a15.74,15.74,0,0,0,2.58,1.79c1.56.83,2.92.93,4.08-.09l.19-.17a2.38,2.38,0,0,0,.42-1.84,2.18,2.18,0,0,0-.61-1.06,2.14,2.14,0,0,0-3.2.3,6.36,6.36,0,0,1-.88-.54,31.85,31.85,0,0,1-2.58-2.08c-.58-.51-1.19-1.06-1.84-1.66-1.27-1.14-2.66-2.42-4.13-3.71a49.61,49.61,0,0,1,4.13-3.12c.6-.41,1.21-.8,1.84-1.18q1.26-.75,2.58-1.38a26.07,26.07,0,0,1,4.08-1.57,21.63,21.63,0,0,1,9.44-.58,23,23,0,0,1,3.37.79.08.08,0,0,0,.07-.14"/><rect class="cls-1" x="122.71" y="124.5" width="8.77" height="8.77" transform="translate(-53.91 127.61) rotate(-45)"/><rect class="cls-1" x="75.93" y="88.13" width="7.26" height="7.26" transform="translate(-32.32 139.01) rotate(-71.97)"/><rect class="cls-1" x="96.82" y="27.01" width="6.02" height="6.01" transform="translate(54.52 123.91) rotate(-80.98)"/><rect class="cls-1" x="170.47" y="64.54" width="6.01" height="6.01" transform="translate(3.04 142.43) rotate(-45)"/><rect class="cls-1" x="168.19" y="50.21" width="6.02" height="6.01" transform="translate(46.13 181.66) rotate(-63.03)"/><rect class="cls-1" x="96.82" y="102.06" width="6.01" height="6.01" transform="translate(-15.21 16.91) rotate(-9)"/><rect class="cls-1" x="151.35" y="27.01" width="6.01" height="6.02" transform="translate(-2.8 24.52) rotate(-9)"/><rect class="cls-1" x="109.75" y="108.65" width="6.02" height="6.01" transform="translate(-38.38 63.29) rotate(-26.97)"/><rect class="cls-1" x="124.08" y="18.16" width="6.01" height="6.01" transform="translate(22.26 96.06) rotate(-45)"/><rect class="cls-1" x="118.29" y="25.22" width="4.98" height="4.98" transform="translate(27.33 109.09) rotate(-53.97)"/><rect class="cls-1" x="130.91" y="104.89" width="4.98" height="4.98" transform="translate(-31.91 152.1) rotate(-53.97)"/><rect class="cls-1" x="88.66" y="46.74" width="4.98" height="4.98" transform="translate(-10.75 30.56) rotate(-17.99)"/><rect class="cls-1" x="160.54" y="83.36" width="4.98" height="4.98" transform="translate(-18.54 54.54) rotate(-17.99)"/><rect class="cls-1" x="84.76" y="71.36" width="4.98" height="4.98" transform="translate(-23.78 101.02) rotate(-53.99)"/><rect class="cls-1" x="181.04" y="82.12" width="8.77" height="8.77" transform="translate(-19.06 93.61) rotate(-27)"/><rect class="cls-1" x="86.65" y="112.79" width="8.77" height="8.77" transform="translate(-17.19 15.67) rotate(-8.99)"/><rect class="cls-1" x="158.76" y="13.53" width="8.77" height="8.77" transform="matrix(0.99, -0.16, 0.16, 0.99, -0.79, 25.77)"/><rect class="cls-1" x="70.78" y="72.26" width="7.26" height="7.26" transform="translate(-30.72 91.5) rotate(-54.01)"/><rect class="cls-1" x="109.75" y="20.42" width="6.01" height="6.02" transform="translate(40.74 113.3) rotate(-63.03)"/><rect class="cls-1" x="79.97" y="50.2" width="6.01" height="6.02" transform="translate(-15.11 43.46) rotate(-27)"/><rect class="cls-1" x="124.08" y="110.92" width="6.01" height="6.01" transform="translate(-43.33 123.29) rotate(-45.02)"/><rect class="cls-1" x="160.54" y="46.74" width="4.98" height="4.98" transform="translate(65.85 189.09) rotate(-72.01)"/><rect class="cls-1" x="96.08" y="93.57" width="4.98" height="4.98"/><rect class="cls-1" x="64.37" y="44.2" width="8.77" height="8.77" transform="translate(-14.57 36.51) rotate(-27)"/><rect class="cls-1" x="64.37" y="82.12" width="8.77" height="8.77" transform="translate(-39.53 108.48) rotate(-63)"/><rect class="cls-1" x="99.24" y="16.38" width="7.26" height="7.26" transform="matrix(0.31, -0.95, 0.95, 0.31, 52.06, 111.68)"/><rect class="cls-1" x="147.67" y="111.44" width="7.26" height="7.26" transform="translate(-4.89 223.41) rotate(-72)"/><rect class="cls-1" x="170.99" y="88.13" width="7.26" height="7.26" transform="translate(-19.81 58.46) rotate(-18)"/><rect class="cls-1" x="176.14" y="72.26" width="7.26" height="7.26" transform="translate(-10.28 120.12) rotate(-35.99)"/><rect class="cls-1" x="170.98" y="39.7" width="7.26" height="7.26" transform="translate(79.46 196.02) rotate(-72.01)"/><rect class="cls-1" x="161.18" y="26.2" width="7.26" height="7.26"/><rect class="cls-1" x="99.24" y="111.44" width="7.26" height="7.26" transform="translate(-30.51 37.4) rotate(-17.99)"/><rect class="cls-1" x="131.8" y="116.6" width="7.26" height="7.26" transform="translate(-41.43 159.17) rotate(-54.01)"/><rect class="cls-1" x="79.97" y="78.87" width="6.02" height="6.01" transform="translate(-27.64 118.65) rotate(-63.01)"/><rect class="cls-1" x="96.08" y="36.54" width="4.98" height="4.98"/><rect class="cls-1" x="84.76" y="58.75" width="4.98" height="4.98" transform="translate(-19.33 63) rotate(-36.01)"/><rect class="cls-1" x="142.91" y="29.12" width="4.98" height="4.98" transform="translate(-2.66 46.37) rotate(-17.96)"/><rect class="cls-1" x="130.91" y="25.22" width="4.98" height="4.98" transform="translate(9.2 83.73) rotate(-36.01)"/><rect class="cls-1" x="153.4" y="86.1" width="4.12" height="4.12" transform="translate(-11.87 25.39) rotate(-9)"/><polygon class="cls-1" points="162.16 64.63 159.24 67.55 162.16 70.46 165.08 67.55 162.16 64.63"/><rect class="cls-1" x="181.04" y="44.21" width="8.77" height="8.77" transform="translate(57.98 191.77) rotate(-63.01)"/><rect class="cls-1" x="161.17" y="101.63" width="7.26" height="7.26"/><rect class="cls-1" x="75.93" y="39.7" width="7.26" height="7.26" transform="translate(-9.5 26.74) rotate(-18.02)"/><rect class="cls-1" x="147.67" y="16.39" width="7.26" height="7.26" transform="translate(1.22 47.76) rotate(-18.01)"/><rect class="cls-1" x="115.12" y="11.23" width="7.26" height="7.26" transform="translate(36.97 102.24) rotate(-54.03)"/><rect class="cls-1" x="168.2" y="78.87" width="6.01" height="6.02" transform="translate(-18.51 86.63) rotate(-27)"/><rect class="cls-1" x="77.7" y="64.54" width="6.01" height="6.01" transform="translate(-24.12 76.85) rotate(-45)"/><rect class="cls-1" x="164.44" y="71.36" width="4.98" height="4.98" transform="translate(-11.51 112.32) rotate(-36.03)"/><rect class="cls-1" x="106.29" y="100.99" width="4.98" height="4.98" transform="translate(-26.6 38.58) rotate(-17.96)"/><rect class="cls-1" x="125.03" y="100.55" width="4.13" height="4.13" transform="translate(-35.34 119.92) rotate(-45)"/><rect class="cls-1" x="104.41" y="37.11" width="4.12" height="4.13" transform="translate(51.14 138.21) rotate(-81)"/><rect class="cls-1" x="91.67" y="76.32" width="4.13" height="4.13" transform="translate(-18.68 126.26) rotate(-62.97)"/><rect class="cls-1" x="85.74" y="26.2" width="7.26" height="7.26"/><rect class="cls-1" x="131.8" y="11.23" width="7.26" height="7.26" transform="translate(17.1 82.39) rotate(-35.97)"/><rect class="cls-1" x="138.41" y="108.65" width="6.01" height="6.02" transform="translate(-22.26 186.99) rotate(-63.01)"/><rect class="cls-1" x="86.56" y="91.8" width="6.01" height="6.01" transform="translate(-18.09 168.44) rotate(-81)"/><rect class="cls-1" x="161.61" y="37.28" width="6.01" height="6.01" transform="translate(99.07 196.57) rotate(-81)"/><rect class="cls-1" x="153.12" y="93.57" width="4.98" height="4.98"/><rect class="cls-1" x="164.44" y="58.74" width="4.98" height="4.98" transform="translate(19.29 160.32) rotate(-54.01)"/><rect class="cls-1" x="118.29" y="104.89" width="4.98" height="4.98" transform="translate(-40.06 91.57) rotate(-36.03)"/><rect class="cls-1" x="114.19" y="32.13" width="4.12" height="4.13" transform="translate(33.03 122.26) rotate(-63.01)"/><rect class="cls-1" x="135.86" y="98.84" width="4.13" height="4.13" transform="translate(-14.55 178.07) rotate(-63.03)"/><rect class="cls-1" x="145.64" y="93.86" width="4.12" height="4.13" transform="translate(29.97 226.9) rotate(-81.05)"/><rect class="cls-1" x="91.67" y="54.64" width="4.13" height="4.13" transform="translate(-15.53 48.73) rotate(-27)"/><rect class="cls-1" x="158.38" y="76.32" width="4.13" height="4.13" transform="translate(-18.1 81.36) rotate(-26.99)"/><rect class="cls-1" x="96.65" y="86.1" width="4.12" height="4.12" transform="matrix(0.16, -0.99, 0.99, 0.16, -3.75, 171.93)"/><rect class="cls-1" x="145.64" y="37.11" width="4.13" height="4.12" transform="translate(-4.31 23.57) rotate(-8.99)"/><rect class="cls-1" x="114.19" y="98.84" width="4.13" height="4.13" transform="translate(-33.15 63.84) rotate(-27.03)"/><rect class="cls-1" x="86.65" y="13.53" width="8.77" height="8.77" transform="matrix(0.16, -0.99, 0.99, 0.16, 59.08, 105.02)"/><rect class="cls-1" x="158.76" y="112.79" width="8.77" height="8.77" transform="translate(21.87 259.96) rotate(-80.99)"/><rect class="cls-1" x="122.71" y="1.82" width="8.77" height="8.77" transform="translate(32.84 91.68) rotate(-45)"/><rect class="cls-1" x="70.78" y="55.57" width="7.26" height="7.26" transform="translate(-20.59 55.02) rotate(-35.99)"/><rect class="cls-1" x="176.14" y="55.57" width="7.26" height="7.26" transform="translate(26.22 169.86) rotate(-54.01)"/><rect class="cls-1" x="85.74" y="101.63" width="7.26" height="7.26"/><rect class="cls-1" x="115.11" y="116.6" width="7.26" height="7.26" transform="translate(-47.98 92.73) rotate(-35.99)"/><rect class="cls-1" x="151.34" y="102.06" width="6.01" height="6.01" transform="translate(26.43 241.08) rotate(-81)"/><rect class="cls-1" x="86.56" y="37.28" width="6.01" height="6.01" transform="translate(-5.2 14.51) rotate(-9)"/><rect class="cls-1" x="161.61" y="91.8" width="6.01" height="6.01" transform="translate(-12.81 26.92) rotate(-9)"/><rect class="cls-1" x="138.42" y="20.43" width="6.02" height="6.01" transform="translate(4.77 66.74) rotate(-26.99)"/><rect class="cls-1" x="106.29" y="29.12" width="4.98" height="4.98" transform="translate(45.17 125.34) rotate(-72.04)"/><rect class="cls-1" x="142.91" y="100.99" width="4.98" height="4.98" transform="translate(2.08 209.82) rotate(-72.01)"/><rect class="cls-1" x="88.66" y="83.36" width="4.98" height="4.98" transform="translate(-18.65 146.04) rotate(-72.01)"/><rect class="cls-1" x="153.12" y="36.53" width="4.98" height="4.98"/><rect class="cls-1" x="125.03" y="30.41" width="4.13" height="4.13" transform="translate(14.26 99.38) rotate(-45)"/><rect class="cls-1" x="96.65" y="44.87" width="4.12" height="4.13" transform="matrix(0.99, -0.16, 0.16, 0.99, -6.11, 15.96)"/><polygon class="cls-1" points="92.02 64.63 89.1 67.55 92.02 70.46 94.94 67.55 92.02 64.63"/><rect class="cls-1" x="158.38" y="54.64" width="4.13" height="4.13" transform="translate(37.09 173.94) rotate(-63.01)"/><rect class="cls-1" x="153.4" y="44.87" width="4.13" height="4.12" transform="translate(84.8 193.14) rotate(-81)"/><rect class="cls-1" x="104.41" y="93.86" width="4.12" height="4.12" transform="translate(-13.69 17.83) rotate(-8.99)"/><rect class="cls-1" x="135.87" y="32.13" width="4.12" height="4.12" transform="translate(-0.46 66.45) rotate(-27.04)"/><path class="cls-1" d="M12.31,196.85a4.89,4.89,0,0,1-1,1.87l1.5,1.42-1.43,1.48-1.57-1.49a6.77,6.77,0,0,1-1.24.62,6.89,6.89,0,0,1-2.11.29,6,6,0,0,1-4.23-1.53,8.16,8.16,0,0,1,.06-10.82,6.12,6.12,0,0,1,4.21-1.5,6,6,0,0,1,4.26,1.59,6.65,6.65,0,0,1,2,5.14A8.82,8.82,0,0,1,12.31,196.85Zm-5,1.76a6.12,6.12,0,0,0,.61-.22l-1.33-1.26L8,195.66l1.33,1.25a6.27,6.27,0,0,0,.43-1.12,6.42,6.42,0,0,0,.2-1.67,5.6,5.6,0,0,0-.9-3.41,3.09,3.09,0,0,0-2.64-1.2,3.21,3.21,0,0,0-2.59,1.15,5.31,5.31,0,0,0-1,3.46A4.79,4.79,0,0,0,4.29,198a3.24,3.24,0,0,0,2.15.75A3.49,3.49,0,0,0,7.35,198.61Z"/><path class="cls-1" d="M15,187.59h2.78v8a4.45,4.45,0,0,0,.32,2,2.12,2.12,0,0,0,2.16,1.1,2.12,2.12,0,0,0,2.15-1.1,4.63,4.63,0,0,0,.31-2v-8H25.5v8a6.76,6.76,0,0,1-.64,3.25Q23.65,201,20.26,201c-2.27,0-3.8-.71-4.61-2.13a6.75,6.75,0,0,1-.65-3.25Z"/><path class="cls-1" d="M32.05,187.59h3.1l4.63,13.09h-3L36,198H31.13l-.89,2.69H27.38Zm-.18,8.14h3.36l-1.66-5.15Z"/><path class="cls-1" d="M41.62,187.59h2.74v10.73h6.53v2.36H41.62Z"/><path class="cls-1" d="M55.41,200.68H52.69V187.59h2.72Z"/><path class="cls-1" d="M67.65,187.59v2.32H63.74v10.77H61V189.91H57.05v-2.32Z"/><path class="cls-1" d="M76.9,187.59H80l-4.38,8.18v4.91H72.88v-4.91l-4.52-8.18h3.22l2.72,5.7Z"/><path class="cls-1" d="M96.73,199.51a6.78,6.78,0,0,1-8.58,0,7.06,7.06,0,0,1-2-5.39,6.94,6.94,0,0,1,2-5.4,6.78,6.78,0,0,1,8.58,0,6.94,6.94,0,0,1,2,5.4A7.06,7.06,0,0,1,96.73,199.51Zm-1.71-2a6.54,6.54,0,0,0,0-6.82,3.11,3.11,0,0,0-2.58-1.2,3.17,3.17,0,0,0-2.59,1.2,6.48,6.48,0,0,0,0,6.82,3.19,3.19,0,0,0,2.59,1.19A3.13,3.13,0,0,0,95,197.53Z"/><path class="cls-1" d="M101,187.61h9.33v2.3h-6.62v3h5.8v2.27h-5.8v5.49H101Z"/><path class="cls-1" d="M116.6,187.28h2.73V198h6.54v2.36H116.6Z"/><path class="cls-1" d="M130.38,200.37h-2.71V187.28h2.71Z"/><path class="cls-1" d="M133.12,187.3h9.33v2.3h-6.61v3h5.79v2.27h-5.79v5.49h-2.72Z"/><path class="cls-1" d="M154.08,189.6h-6.92v2.78h6.36v2.27h-6.36V198h7.24v2.36h-9.91V187.28h9.59Z"/><path class="cls-1" d="M170.74,194.7a5,5,0,0,1-3.29,1h-2.72v4.71H162V187.28h5.62a4.55,4.55,0,0,1,3.1,1,4,4,0,0,1,1.15,3.14A4.07,4.07,0,0,1,170.74,194.7ZM168.65,190a2.21,2.21,0,0,0-1.46-.44h-2.46v3.86h2.46a2.12,2.12,0,0,0,1.46-.47,2,2,0,0,0,.52-1.5A1.81,1.81,0,0,0,168.65,190Z"/><path class="cls-1" d="M182.65,187.62a3.24,3.24,0,0,1,1.22.91,4,4,0,0,1,.66,1.1,3.73,3.73,0,0,1,.24,1.38,4,4,0,0,1-.47,1.83,2.63,2.63,0,0,1-1.55,1.28,2.41,2.41,0,0,1,1.28,1,4.34,4.34,0,0,1,.38,2v.88a6.46,6.46,0,0,0,.07,1.21,1.1,1.1,0,0,0,.5.75v.33h-3c-.08-.29-.14-.53-.17-.7a7.1,7.1,0,0,1-.12-1.13l0-1.22a2.47,2.47,0,0,0-.43-1.67,2.21,2.21,0,0,0-1.56-.41H177v5.13h-2.67V187.28h6.26A5.76,5.76,0,0,1,182.65,187.62ZM177,189.55v3.52h2.95a3.15,3.15,0,0,0,1.31-.21,1.48,1.48,0,0,0,.78-1.48,1.67,1.67,0,0,0-.75-1.6,2.79,2.79,0,0,0-1.27-.23Z"/><path class="cls-1" d="M197.65,199.2a6.78,6.78,0,0,1-8.58,0,7,7,0,0,1-2-5.39,6.94,6.94,0,0,1,2-5.4,6.78,6.78,0,0,1,8.58,0,6.94,6.94,0,0,1,2,5.4A7,7,0,0,1,197.65,199.2Zm-1.71-2a6.6,6.6,0,0,0,0-6.82,3.38,3.38,0,0,0-5.17,0,6.48,6.48,0,0,0,0,6.82,3.4,3.4,0,0,0,5.17,0Z"/><path class="cls-1" d="M210.69,191.36a2.57,2.57,0,0,0-1.52-1.87,3.82,3.82,0,0,0-1.5-.29,3.25,3.25,0,0,0-2.59,1.19,5.4,5.4,0,0,0-1,3.58,4.48,4.48,0,0,0,1.1,3.42,3.65,3.65,0,0,0,2.51,1,3.28,3.28,0,0,0,2.25-.79,3.37,3.37,0,0,0,1.08-2.07h-3v-2.19h5.45v7h-1.81l-.28-1.64a6.24,6.24,0,0,1-1.42,1.31,5,5,0,0,1-2.66.66,5.52,5.52,0,0,1-4.26-1.8,6.82,6.82,0,0,1-1.74-5,7.3,7.3,0,0,1,1.75-5.09,6,6,0,0,1,4.63-1.92,6.08,6.08,0,0,1,4,1.27,4.68,4.68,0,0,1,1.73,3.15Z"/><path class="cls-1" d="M224.6,187.62a3.27,3.27,0,0,1,1.23.91,4,4,0,0,1,.66,1.1,3.73,3.73,0,0,1,.24,1.38,4,4,0,0,1-.47,1.83,2.63,2.63,0,0,1-1.55,1.28,2.41,2.41,0,0,1,1.28,1,4.34,4.34,0,0,1,.38,2v.88a6.46,6.46,0,0,0,.07,1.21,1.1,1.1,0,0,0,.5.75v.33h-3c-.08-.29-.14-.53-.17-.7a7.1,7.1,0,0,1-.12-1.13l0-1.22a2.47,2.47,0,0,0-.43-1.67,2.21,2.21,0,0,0-1.56-.41H219v5.13h-2.67V187.28h6.26A5.66,5.66,0,0,1,224.6,187.62ZM219,189.55v3.52h3a3.15,3.15,0,0,0,1.31-.21,1.48,1.48,0,0,0,.78-1.48,1.67,1.67,0,0,0-.75-1.6,2.79,2.79,0,0,0-1.27-.23Z"/><path class="cls-1" d="M233.27,187.28h3.1L241,200.37h-3l-.86-2.69h-4.82l-.89,2.69H228.6Zm-.18,8.14h3.35l-1.65-5.15Z"/><path class="cls-1" d="M251.52,187.28h3.94v13.09h-2.55v-8.85c0-.26,0-.62,0-1.07s0-.82,0-1.06l-2.48,11h-2.66l-2.46-11c0,.24,0,.6,0,1.06s0,.81,0,1.07v8.85H242.8V187.28h4l2.38,10.29Z"/><path class="cls-1" d="M130.25,167.9c0-3.86-.91-6.89-2.71-9.12s-4.34-3.6-7.91-4.54l-1,3.52q7.24,1.83,7.52,8.92h-9.46V170h13.58Z"/><path class="cls-1" d="M106,170h7v-8.07q0-7.34-7.19-7.34A8.2,8.2,0,0,0,99.54,157a7.91,7.91,0,0,0-2.09,5.65q0,7.37,8.56,7.37m-3.34-10.87a3.47,3.47,0,0,1,2.79-1.22q3.41,0,3.41,4.53v4.24h-2.41q-4.8,0-4.8-4.47a4.59,4.59,0,0,1,1-3.08"/><path class="cls-1" d="M108.14,152.59a2,2,0,0,0,1.49-.64,2.14,2.14,0,0,0,.61-1.53,2.1,2.1,0,0,0-.61-1.54,2,2,0,0,0-1.49-.64,2,2,0,0,0-1.5.64,2.18,2.18,0,0,0-.6,1.54,2.14,2.14,0,0,0,.6,1.53,2,2,0,0,0,1.5.64"/><path class="cls-1" d="M156.54,173.22a2.12,2.12,0,0,0-.65,1.56,2.2,2.2,0,0,0,2.19,2.21,2.13,2.13,0,0,0,1.56-.65,2.2,2.2,0,0,0,0-3.12,2.16,2.16,0,0,0-1.56-.64,2.13,2.13,0,0,0-1.54.64"/><path class="cls-1" d="M141.3,170h2.49v.48q0,4.25-5.52,4.24a22.8,22.8,0,0,1-5-.55l-.27,3.45a28.84,28.84,0,0,0,4.86.42c3.39,0,5.94-.78,7.67-2.34a7.23,7.23,0,0,0,2.32-5.64V170h18.78a35.4,35.4,0,0,0,.55-5.91q0-4.68-2.32-6.93c-1.61-1.56-4.17-2.35-7.7-2.35a31.12,31.12,0,0,0-4.08.3v3.29a25.88,25.88,0,0,1,3.66-.27c2.25,0,3.87.52,4.86,1.54a6.41,6.41,0,0,1,1.4,4.58,20.83,20.83,0,0,1-.15,2.43h-15v-11a18.66,18.66,0,0,0-6.67-1.11,8.37,8.37,0,0,0-6.43,2.43,7.9,7.9,0,0,0-2,5.58q0,7.4,8.55,7.4M138,159.13a3.47,3.47,0,0,1,2.79-1.22,7.08,7.08,0,0,1,3,.58v8.19h-2q-4.8,0-4.8-4.47a4.54,4.54,0,0,1,1-3.08"/><path class="cls-1" d="M102.84,152.59a2.08,2.08,0,0,0,1.53-.64,2.14,2.14,0,0,0,.61-1.53,2.1,2.1,0,0,0-.61-1.54,2,2,0,0,0-1.53-.64,2,2,0,0,0-1.49.64,2.14,2.14,0,0,0-.61,1.54,2.1,2.1,0,0,0,.61,1.53,2,2,0,0,0,1.49.64"/><path class="cls-1" d="M255.68,154.41h-4.32v12h-6v-12h-4.32v15.76c0,3.54-1.31,4.59-3.54,4.59a9.08,9.08,0,0,1-2.66-.4l-.32,3.44a11.26,11.26,0,0,0,2.75.33c6.65,0,8.09-4,8.09-8.19v-.13h10.28Z"/><path class="cls-1" d="M231.87,152.41a2.26,2.26,0,1,0,0-4.52,2.31,2.31,0,0,0-2.26,2.27,2.28,2.28,0,0,0,2.26,2.25"/><path class="cls-1" d="M255.55,174.23a2.23,2.23,0,1,0-2.23,2.23,2.17,2.17,0,0,0,2.23-2.23"/><polygon class="cls-1" points="226.34 169.81 234.04 169.81 234.04 154.41 229.71 154.41 229.71 166.4 226.34 166.4 225.85 166.4 222.96 166.4 222.96 146.72 218.64 146.72 218.64 169.81 225.85 169.81 226.34 169.81"/><path class="cls-1" d="M187.14,174.23a2.23,2.23,0,1,0,2.23-2.23,2.19,2.19,0,0,0-2.23,2.23"/><path class="cls-1" d="M186.16,180.29l.29-3.4c-3.76,0-5.4-1.67-5.4-3.48,0-2,1.31-3.6,6.16-3.6h26.72v-8.29c0-4.58-2.29-7.53-7.4-7.53-5.67,0-8.52,3.8-8.52,8,0,2.32.62,3.8,1.84,4.68a6.36,6.36,0,0,0-1.84-.23h-4.09a25.64,25.64,0,0,0,.14-2.65c0-6.29-2.92-9.53-10.29-9.53a34.75,34.75,0,0,0-4.19.29v3.38a26.5,26.5,0,0,1,3.76-.27c4.72,0,6.42,2.13,6.42,6.29a20.29,20.29,0,0,1-.16,2.49h-2.23c-7.5,0-10.61,3.15-10.61,7.28,0,3.8,3,6.61,9.4,6.61m20-22.9c2.2,0,3.51,1.38,3.51,4.66v4.35h-2.49c-3.41,0-4.92-1.5-4.92-4.58,0-2.56,1.44-4.43,3.9-4.43"/><path class="cls-1" d="M46.26,172.11a2.13,2.13,0,1,0,2.13,2.13,2.13,2.13,0,0,0-2.13-2.13"/><path class="cls-1" d="M51.5,172.11a2.13,2.13,0,1,0,2.13,2.13,2.13,2.13,0,0,0-2.13-2.13"/><path class="cls-1" d="M75.14,166.31H69.71a25.46,25.46,0,0,0,.13-2.65c0-6.29-2.91-9.53-10.28-9.53a22.91,22.91,0,0,0-4.07.36v3.37a21.87,21.87,0,0,1,3.67-.33c4.69,0,6.39,2.13,6.39,6.29a20.29,20.29,0,0,1-.16,2.49H51.08v-12H46.75v12H24.85V146.62H20.52v23.1h59v-23.1H75.14Z"/><rect class="cls-1" x="84.71" y="146.62" width="4.32" height="23.1"/><path class="cls-1" d="M9.19,148.6a2.17,2.17,0,0,0-.61,1.54,2.15,2.15,0,0,0,.61,1.53,2,2,0,0,0,1.49.63,2,2,0,0,0,1.5-.63,2.14,2.14,0,0,0,.61-1.53,2.1,2.1,0,0,0-.61-1.54,2,2,0,0,0-1.5-.64,2,2,0,0,0-1.49.64"/><path class="cls-1" d="M3.89,148.6a2.16,2.16,0,0,0-.6,1.54,2.14,2.14,0,0,0,.6,1.53,2,2,0,0,0,1.5.63,2.08,2.08,0,0,0,1.53-.63,2.17,2.17,0,0,0,.6-1.53,2.13,2.13,0,0,0-.6-1.54A2.05,2.05,0,0,0,5.39,148a2,2,0,0,0-1.5.64"/><path class="cls-1" d="M8.33,154.31a8.2,8.2,0,0,0-6.24,2.38A7.93,7.93,0,0,0,0,162.35q0,7.36,8.55,7.37h7v-8.07q0-7.34-7.2-7.34m3.09,12.09H9c-3.2,0-4.79-1.49-4.79-4.47a4.54,4.54,0,0,1,1-3.08A3.47,3.47,0,0,1,8,157.63q3.4,0,3.41,4.53Z"/></g></g></svg>