<svg xmlns="http://www.w3.org/2000/svg" viewBox="0 0 136.73 143.77"><defs><style>.cls-1{fill:#899aa1;}.cls-2{fill:#7f3f98;}</style></defs><g id="Layer_2" data-name="Layer 2"><g id="Layer_3" data-name="Layer 3"><path class="cls-1" d="M97.66,77.54A19.12,19.12,0,0,0,94,76,21.67,21.67,0,0,0,84,75.22a24.33,24.33,0,0,0-4.35,1.13l-.44.15a24.29,24.29,0,0,0-2.3,1c-.65.33-1.31.69-2,1.09a45.5,45.5,0,0,0-4.38,3,94.46,94.46,0,0,1-.46-23.41,0,0,0,0,1,.06,0c3.47,2.19,2.5,8.31,1.77,10a0,0,0,0,0,.06,0,10.81,10.81,0,0,0,1.33-12.2s0-.06,0,0a9.83,9.83,0,0,1,1.57,1.6,9.46,9.46,0,0,1,2,5.19,15.32,15.32,0,0,1,0,2.35c0,.18,0,.36,0,.52s0,0,0,0h0a10.06,10.06,0,0,0,0-9.14,11.53,11.53,0,0,0-2-2.7c-.25-.25-.51-.5-.79-.74,0,0,0-.07,0-.06.27.06.51.14.76.22a7.18,7.18,0,0,1,2,1A8.27,8.27,0,0,1,79.61,58a9.36,9.36,0,0,1,.63,3.38s.06,0,.07,0a8.41,8.41,0,0,0-.7-6.9,8.11,8.11,0,0,0-2.74-2.65,8.45,8.45,0,0,0-2-.88,5.08,5.08,0,0,0-.94-.21s0-.06,0-.07c.32,0,.63,0,.93,0a9.84,9.84,0,0,1,2,.16,7.1,7.1,0,0,1,2.74,1.09,5.77,5.77,0,0,1,1.84,2s.06,0,.06,0a5.47,5.47,0,0,0-1.9-3.7,7,7,0,0,0-2.74-1.45,7.86,7.86,0,0,0-2-.28,6.16,6.16,0,0,0-2.46.44s0,0,0-.05A4.59,4.59,0,0,1,74.91,47a5.54,5.54,0,0,1,2-.23,4.54,4.54,0,0,1,1.61.38s.06,0,0-.05a5.94,5.94,0,0,0-1.65-1.34,5.14,5.14,0,0,0-2-.64,4.91,4.91,0,0,0-4.73,2.34,0,0,0,0,1-.06,0,12.66,12.66,0,0,1-.65-1.33,15.29,15.29,0,0,1-1.07-3.58s-.06,0-.06,0a16.25,16.25,0,0,1-1.08,3.59,11.59,11.59,0,0,1-.65,1.32s0,0-.06,0c-2.07-3.14-6-3.08-8.33-.36,0,0,0,.06,0,.05a5.17,5.17,0,0,1,6.07,1.62,0,0,0,0,1,0,.05,7.22,7.22,0,0,0-7.79,1.93,5.51,5.51,0,0,0-1.27,3.06s.05.06.06,0a5.94,5.94,0,0,1,1.21-1.48,8,8,0,0,1,6.27-1.68,0,0,0,0,1,0,.07,8.29,8.29,0,0,0-6.27,5,9.06,9.06,0,0,0-.07,5.62s.07,0,.07,0v-.16c0-3.05,1.78-7.13,6.09-8.17a0,0,0,0,1,0,.06c-4.82,4.24-4.34,9.48-2.77,12.58,0,0,.07,0,.06,0-.21-2.34-.37-6.51,3.49-9.66,0,0,.08,0,.06,0a10.81,10.81,0,0,0,1.32,12.2s.08,0,.06,0c-.72-1.74-1.7-7.86,1.77-10,0,0,.06,0,.06,0a94.84,94.84,0,0,1-.45,23.41,35.61,35.61,0,0,0-8.65-5.13c-.36-.13-.72-.26-1.07-.37A22.68,22.68,0,0,0,48.32,75a21,21,0,0,0-8.43,2.13l-.82.44a.08.08,0,0,0,.07.15l.75-.22a23.09,23.09,0,0,1,8.43-.83,24.9,24.9,0,0,1,8.17,2.2,43.12,43.12,0,0,1,9.73,6.34c-4.12,3.6-7.61,7.1-9.73,8.33l-.31.17a2.27,2.27,0,0,0-4,.81,2.2,2.2,0,0,0,.44,2,3.25,3.25,0,0,0,3.92.57c2.85-1.2,6.41-5,10.77-9l1.11-1,1.1,1c2,1.81,3.78,3.58,5.44,5.08.68.62,1.33,1.19,2,1.71a17.53,17.53,0,0,0,2.74,1.9c1.67.88,3.11,1,4.35-.1l.2-.18a2.55,2.55,0,0,0,.44-2A2.18,2.18,0,0,0,84,93.37a2.28,2.28,0,0,0-3.41.31,7.87,7.87,0,0,1-.94-.57,32.85,32.85,0,0,1-2.74-2.21c-.61-.54-1.27-1.14-2-1.77-1.35-1.22-2.82-2.58-4.39-3.95a52,52,0,0,1,4.39-3.32c.64-.44,1.29-.86,2-1.25a28.86,28.86,0,0,1,2.74-1.47A27.52,27.52,0,0,1,84,77.47,23,23,0,0,1,94,76.84a25,25,0,0,1,3.58.85.08.08,0,0,0,.07-.15"/><rect class="cls-2" x="63.7" y="132.5" width="9.33" height="9.33" transform="translate(-76.97 88.52) rotate(-45)"/><rect class="cls-2" x="13.92" y="93.79" width="7.73" height="7.73" transform="translate(-80.59 84.38) rotate(-71.99)"/><rect class="cls-2" x="36.15" y="28.75" width="6.4" height="6.4" transform="matrix(0.16, -0.99, 0.99, 0.16, 1.64, 65.81)"/><rect class="cls-2" x="114.53" y="68.68" width="6.4" height="6.4" transform="translate(-16.35 104.3) rotate(-45)"/><rect class="cls-2" x="112.11" y="53.43" width="6.4" height="6.4" transform="translate(12.51 133.67) rotate(-63.01)"/><rect class="cls-2" x="36.15" y="108.62" width="6.4" height="6.4" transform="translate(-17.01 7.53) rotate(-9)"/><rect class="cls-2" x="94.18" y="28.75" width="6.4" height="6.4" transform="translate(-3.8 15.63) rotate(-9)"/><rect class="cls-2" x="49.91" y="115.63" width="6.4" height="6.4" transform="translate(-48.15 37.05) rotate(-26.99)"/><rect class="cls-2" x="65.17" y="19.32" width="6.4" height="6.4" transform="translate(4.1 54.94) rotate(-45)"/><rect class="cls-2" x="59" y="26.84" width="5.3" height="5.3" transform="matrix(0.59, -0.81, 0.81, 0.59, 1.56, 62.03)"/><rect class="cls-2" x="72.43" y="111.63" width="5.3" height="5.3" transform="translate(-61.51 107.85) rotate(-54)"/><rect class="cls-2" x="27.47" y="49.74" width="5.3" height="5.3" transform="translate(-14.72 11.87) rotate(-18)"/><rect class="cls-2" x="103.96" y="88.72" width="5.3" height="5.3" transform="translate(-23.02 37.41) rotate(-18)"/><rect class="cls-2" x="23.32" y="75.95" width="5.3" height="5.3" transform="translate(-52.88 53.41) rotate(-54)"/><rect class="cls-2" x="125.79" y="87.39" width="9.33" height="9.33" transform="translate(-27.58 69.27) rotate(-27)"/><rect class="cls-2" x="25.33" y="120.03" width="9.33" height="9.33" transform="translate(-19.15 6.23) rotate(-9.01)"/><rect class="cls-2" x="102.07" y="14.4" width="9.33" height="9.33" transform="translate(-1.67 16.94) rotate(-9.01)"/><rect class="cls-2" x="8.43" y="76.9" width="7.73" height="7.73" transform="translate(-60.27 43.24) rotate(-54)"/><rect class="cls-2" x="49.91" y="21.73" width="6.4" height="6.4" transform="translate(6.79 60.94) rotate(-63.01)"/><rect class="cls-2" x="18.22" y="53.43" width="6.4" height="6.4" transform="translate(-23.37 15.89) rotate(-26.99)"/><rect class="cls-2" x="65.17" y="118.05" width="6.4" height="6.4" transform="translate(-65.71 83.85) rotate(-45)"/><rect class="cls-2" x="103.96" y="49.74" width="5.3" height="5.3" transform="translate(23.84 137.6) rotate(-72)"/><rect class="cls-2" x="35.36" y="99.59" width="5.3" height="5.3"/><rect class="cls-2" x="1.61" y="47.04" width="9.33" height="9.33" transform="translate(-22.79 8.49) rotate(-27)"/><rect class="cls-2" x="1.61" y="87.39" width="9.33" height="9.33" transform="translate(-78.59 55.85) rotate(-63)"/><rect class="cls-2" x="38.73" y="17.44" width="7.73" height="7.73" transform="translate(9.17 55.22) rotate(-72)"/><rect class="cls-2" x="90.27" y="118.6" width="7.73" height="7.73" transform="matrix(0.31, -0.95, 0.95, 0.31, -51.42, 174.15)"/><rect class="cls-2" x="115.08" y="93.79" width="7.73" height="7.73" transform="translate(-24.36 41.54) rotate(-18)"/><rect class="cls-2" x="120.57" y="76.9" width="7.73" height="7.73" transform="translate(-23.71 88.57) rotate(-36)"/><rect class="cls-2" x="115.08" y="42.25" width="7.73" height="7.73" transform="translate(38.33 144.98) rotate(-72)"/><rect class="cls-2" x="104.64" y="27.88" width="7.73" height="7.73"/><rect class="cls-2" x="38.73" y="118.6" width="7.73" height="7.73" transform="translate(-35.76 19.16) rotate(-18)"/><rect class="cls-2" x="73.38" y="124.09" width="7.73" height="7.73" transform="translate(-71.67 115.23) rotate(-54)"/><rect class="cls-2" x="18.22" y="83.94" width="6.4" height="6.4" transform="translate(-65.95 66.67) rotate(-63.01)"/><rect class="cls-2" x="35.36" y="38.88" width="5.3" height="5.3"/><rect class="cls-2" x="23.32" y="62.52" width="5.3" height="5.3" transform="translate(-33.34 27.71) rotate(-36)"/><rect class="cls-2" x="85.2" y="30.99" width="5.3" height="5.3" transform="translate(-6.09 28.79) rotate(-18)"/><rect class="cls-2" x="72.43" y="26.84" width="5.3" height="5.3" transform="translate(-2.99 49.76) rotate(-36)"/><rect class="cls-2" x="96.37" y="91.63" width="4.39" height="4.39" transform="translate(-13.47 16.59) rotate(-9.01)"/><rect class="cls-2" x="103.5" y="69.69" width="4.39" height="4.39" transform="translate(-19.87 95.79) rotate(-45)"/><rect class="cls-2" x="125.79" y="47.04" width="9.33" height="9.33" transform="translate(25.15 144.46) rotate(-63)"/><rect class="cls-2" x="104.64" y="108.16" width="7.73" height="7.73"/><rect class="cls-2" x="13.92" y="42.25" width="7.73" height="7.73" transform="translate(-13.38 7.75) rotate(-18)"/><rect class="cls-2" x="90.27" y="17.44" width="7.73" height="7.73" transform="translate(-1.97 30.14) rotate(-18.01)"/><rect class="cls-2" x="55.62" y="11.95" width="7.73" height="7.73" transform="translate(11.73 54.64) rotate(-54)"/><rect class="cls-2" x="112.11" y="83.94" width="6.4" height="6.4" transform="translate(-26.99 61.84) rotate(-26.99)"/><rect class="cls-2" x="15.8" y="68.68" width="6.4" height="6.4" transform="translate(-45.26 34.49) rotate(-45)"/><rect class="cls-2" x="108.11" y="75.95" width="5.3" height="5.3" transform="translate(-25.04 80.11) rotate(-36)"/><rect class="cls-2" x="46.23" y="107.48" width="5.3" height="5.3" transform="translate(-31.64 20.49) rotate(-18)"/><rect class="cls-2" x="66.17" y="107.01" width="4.39" height="4.39" transform="translate(-57.2 80.33) rotate(-45)"/><rect class="cls-2" x="44.23" y="39.49" width="4.39" height="4.39" transform="translate(-2.01 81.01) rotate(-80.99)"/><rect class="cls-2" x="30.67" y="81.22" width="4.39" height="4.39" transform="translate(-56.38 74.82) rotate(-63)"/><rect class="cls-2" x="24.36" y="27.88" width="7.73" height="7.73"/><rect class="cls-2" x="73.38" y="11.95" width="7.73" height="7.73" transform="matrix(0.81, -0.59, 0.59, 0.81, 5.46, 48.43)"/><rect class="cls-2" x="80.42" y="115.63" width="6.4" height="6.4" transform="translate(-60.22 139.4) rotate(-63.01)"/><rect class="cls-2" x="25.23" y="97.7" width="6.4" height="6.4" transform="translate(-75.68 113.19) rotate(-81)"/><rect class="cls-2" x="105.1" y="39.67" width="6.4" height="6.4" transform="translate(49.02 143.13) rotate(-81)"/><rect class="cls-2" x="96.07" y="99.59" width="5.3" height="5.3"/><rect class="cls-2" x="108.11" y="62.52" width="5.3" height="5.3" transform="translate(-7.06 116.47) rotate(-54)"/><rect class="cls-2" x="59" y="111.63" width="5.3" height="5.3" transform="translate(-55.4 58.06) rotate(-36)"/><rect class="cls-2" x="54.64" y="34.19" width="4.39" height="4.39" transform="translate(-1.39 70.5) rotate(-63)"/><rect class="cls-2" x="77.7" y="105.19" width="4.39" height="4.39" transform="translate(-52.05 129.81) rotate(-63)"/><rect class="cls-2" x="88.11" y="99.89" width="4.39" height="4.39" transform="translate(-24.65 175.29) rotate(-80.99)"/><rect class="cls-2" x="30.67" y="58.15" width="4.39" height="4.39" transform="translate(-23.82 21.5) rotate(-27)"/><rect class="cls-2" x="101.67" y="81.22" width="4.39" height="4.39" transform="translate(-26.55 56.26) rotate(-27)"/><rect class="cls-2" x="35.97" y="91.63" width="4.39" height="4.39" transform="translate(-60.47 116.83) rotate(-80.99)"/><rect class="cls-2" x="88.11" y="39.49" width="4.39" height="4.39" transform="translate(-5.41 14.65) rotate(-9.01)"/><rect class="cls-2" x="54.64" y="105.19" width="4.39" height="4.39" transform="translate(-42.56 37.51) rotate(-27)"/><rect class="cls-2" x="25.33" y="14.4" width="9.33" height="9.33" transform="translate(6.47 45.7) rotate(-80.99)"/><rect class="cls-2" x="102.07" y="120.03" width="9.33" height="9.33" transform="translate(-33.13 210.6) rotate(-80.99)"/><rect class="cls-2" x="63.7" y="1.93" width="9.33" height="9.33" transform="translate(15.36 50.27) rotate(-45)"/><rect class="cls-2" x="8.43" y="59.14" width="7.73" height="7.73" transform="translate(-34.68 19.26) rotate(-36)"/><rect class="cls-2" x="120.57" y="59.14" width="7.73" height="7.73" transform="translate(0.32 126.64) rotate(-54)"/><rect class="cls-2" x="24.36" y="108.16" width="7.73" height="7.73"/><rect class="cls-2" x="55.62" y="124.09" width="7.73" height="7.73" transform="translate(-63.85 59.4) rotate(-36)"/><rect class="cls-2" x="94.18" y="108.62" width="6.4" height="6.4" transform="translate(-28.3 190.5) rotate(-81)"/><rect class="cls-2" x="25.23" y="39.67" width="6.4" height="6.4" transform="translate(-6.36 4.98) rotate(-9)"/><rect class="cls-2" x="105.1" y="97.7" width="6.4" height="6.4" transform="matrix(0.99, -0.16, 0.16, 0.99, -14.45, 18.19)"/><rect class="cls-2" x="80.42" y="21.73" width="6.4" height="6.4" transform="translate(-2.21 40.67) rotate(-26.99)"/><rect class="cls-2" x="46.23" y="30.99" width="5.3" height="5.3" transform="translate(1.79 69.73) rotate(-72)"/><rect class="cls-2" x="85.2" y="107.48" width="5.3" height="5.3" transform="matrix(0.31, -0.95, 0.95, 0.31, -44.03, 159.66)"/><rect class="cls-2" x="27.47" y="88.72" width="5.3" height="5.3" transform="translate(-66.09 91.78) rotate(-72)"/><rect class="cls-2" x="96.07" y="38.88" width="5.3" height="5.3"/><rect class="cls-2" x="66.17" y="32.36" width="4.39" height="4.39" transform="translate(-4.41 58.46) rotate(-45)"/><rect class="cls-2" x="35.97" y="47.75" width="4.39" height="4.39" transform="translate(-7.35 6.59) rotate(-9.01)"/><rect class="cls-2" x="28.84" y="69.69" width="4.39" height="4.39" transform="translate(-41.74 43) rotate(-45)"/><rect class="cls-2" x="101.67" y="58.15" width="4.39" height="4.39" transform="translate(2.93 125.49) rotate(-63)"/><rect class="cls-2" x="96.37" y="47.75" width="4.39" height="4.39" transform="translate(33.81 139.47) rotate(-80.99)"/><rect class="cls-2" x="44.23" y="99.89" width="4.39" height="4.39" transform="translate(-15.41 8.53) rotate(-9.01)"/><rect class="cls-2" x="77.71" y="34.19" width="4.39" height="4.39" transform="translate(-7.81 40.25) rotate(-27)"/></g></g></svg>