<svg id="Layer_1" data-name="Layer 1" xmlns="http://www.w3.org/2000/svg" viewBox="0 0 153.19 154.79"><defs><style>.cls-1{fill:#8899a0;}.cls-2{fill:#66c;}</style></defs><path class="cls-1" d="M105.84,84.31a19.52,19.52,0,0,0-3.7-1.59A22.06,22.06,0,0,0,92,82a24.15,24.15,0,0,0-4.39,1.14l-.44.16a24.76,24.76,0,0,0-2.33,1c-.66.34-1.32.71-2,1.1a48.29,48.29,0,0,0-4.42,3A94.82,94.82,0,0,1,78,64.8a0,0,0,0,1,0,0c3.51,2.21,2.53,8.39,1.79,10.15,0,0,0,.06.07,0a10.91,10.91,0,0,0,1.33-12.32s0-.07.06,0a9.58,9.58,0,0,1,3.56,6.86,14.38,14.38,0,0,1,0,2.37c0,.18,0,.36,0,.53s0,0,0,0h0a10.12,10.12,0,0,0,0-9.23,11.18,11.18,0,0,0-2-2.72c-.25-.25-.51-.51-.79-.76,0,0,0-.07,0-.06.26.07.52.14.76.23a7.59,7.59,0,0,1,2,1A8.27,8.27,0,0,1,87.6,64.6,9.28,9.28,0,0,1,88.24,68s.06,0,.07,0a8.49,8.49,0,0,0-.71-7,8.2,8.2,0,0,0-2.77-2.68,8.63,8.63,0,0,0-2-.89,7.24,7.24,0,0,0-.95-.21s0-.06,0-.07c.33,0,.64,0,.94,0a9.25,9.25,0,0,1,2,.17A7.1,7.1,0,0,1,87.6,58.4a5.89,5.89,0,0,1,1.86,2,0,0,0,0,0,.06,0,5.56,5.56,0,0,0-1.92-3.74,7,7,0,0,0-2.77-1.45,7.47,7.47,0,0,0-2-.29,6.44,6.44,0,0,0-2.48.44s-.05,0,0,0a4.64,4.64,0,0,1,2.51-1.78,5.69,5.69,0,0,1,2-.24,4.65,4.65,0,0,1,1.63.38s.06,0,0-.05a6.05,6.05,0,0,0-1.67-1.35,5.37,5.37,0,0,0-2-.65A5,5,0,0,0,78.07,54s0,0,0,0a13,13,0,0,1-.66-1.35A16.07,16.07,0,0,1,76.27,49s0,0-.06,0a15.12,15.12,0,0,1-1.09,3.63A11.77,11.77,0,0,1,74.47,54s0,0-.06,0c-2.1-3.18-6-3.11-8.42-.37,0,0,0,.07,0,.05a5.22,5.22,0,0,1,6.12,1.64s0,.07,0,0a7.29,7.29,0,0,0-7.86,2A5.55,5.55,0,0,0,63,60.36a0,0,0,0,0,.06,0,5.64,5.64,0,0,1,1.22-1.5,8,8,0,0,1,6.33-1.7s0,.07,0,.07a8.38,8.38,0,0,0-6.33,5.08A9.07,9.07,0,0,0,64.18,68s.06,0,.06,0,0-.11,0-.16c0-3.08,1.79-7.2,6.15-8.26,0,0,0,0,0,.06-4.87,4.29-4.39,9.59-2.8,12.71a0,0,0,0,0,.07,0c-.22-2.37-.39-6.58,3.52-9.76,0,0,.08,0,.06,0A10.89,10.89,0,0,0,72.61,75s.08,0,.06,0C71.94,73.16,71,67,74.46,64.77c0,0,.06,0,.06,0a94.9,94.9,0,0,1-.46,23.65,35.32,35.32,0,0,0-8.74-5.18c-.36-.14-.72-.27-1.07-.38A23.17,23.17,0,0,0,56,81.71a21.31,21.31,0,0,0-8.52,2.16l-.83.44a.08.08,0,0,0,.07.15l.76-.22A23.8,23.8,0,0,1,56,83.4a25.46,25.46,0,0,1,8.25,2.23A43.7,43.7,0,0,1,74.07,92c-4.16,3.64-7.68,7.18-9.82,8.42l-.31.17a2.3,2.3,0,0,0-4.1.81,2.23,2.23,0,0,0,.45,2,3.3,3.3,0,0,0,4,.58c2.88-1.22,6.47-5,10.87-9.08l1.12-1,1.12,1c2,1.83,3.82,3.61,5.49,5.13.69.63,1.35,1.21,2,1.73a18.39,18.39,0,0,0,2.77,1.92c1.69.89,3.14,1,4.39-.1l.21-.18a2.63,2.63,0,0,0,.45-2A2.33,2.33,0,0,0,92,100.3a2.23,2.23,0,0,0-1.07-.57,2.28,2.28,0,0,0-2.37.89,7,7,0,0,1-1-.58,31.46,31.46,0,0,1-2.77-2.23c-.62-.55-1.28-1.15-2-1.79-1.36-1.23-2.85-2.6-4.44-4,1.41-1.17,2.89-2.31,4.44-3.36.65-.43,1.31-.86,2-1.26.9-.54,1.83-1,2.77-1.48A28.43,28.43,0,0,1,92,84.24a23.15,23.15,0,0,1,10.15-.63,26.58,26.58,0,0,1,3.62.85.09.09,0,0,0,.08-.15"/><rect class="cls-2" x="71.53" y="139.83" width="9.43" height="9.43" transform="translate(-79.88 96.25) rotate(-45)"/><rect class="cls-2" x="21.25" y="100.73" width="7.81" height="7.81" transform="translate(-82.13 96.21) rotate(-71.99)"/><rect class="cls-2" x="43.7" y="35.03" width="6.47" height="6.47" transform="translate(1.8 78.63) rotate(-81)"/><rect class="cls-2" x="122.88" y="75.37" width="6.46" height="6.46" transform="translate(-18.64 112.19) rotate(-45)"/><rect class="cls-2" x="120.43" y="59.96" width="6.47" height="6.46" transform="translate(11.23 144.7) rotate(-63.01)"/><rect class="cls-2" x="43.7" y="115.71" width="6.47" height="6.47" transform="translate(-18.03 8.81) rotate(-9)"/><rect class="cls-2" x="102.32" y="35.03" width="6.47" height="6.47" transform="translate(-4.69 16.99) rotate(-9)"/><rect class="cls-2" x="57.6" y="122.79" width="6.46" height="6.46" transform="translate(-50.57 41.34) rotate(-26.99)"/><rect class="cls-2" x="73.01" y="25.5" width="6.46" height="6.46" transform="translate(2.01 62.33) rotate(-45)"/><rect class="cls-2" x="66.78" y="33.1" width="5.35" height="5.35" transform="translate(-0.31 70.94) rotate(-54)"/><rect class="cls-2" x="80.35" y="118.75" width="5.35" height="5.35" transform="translate(-64.01 117.23) rotate(-54)"/><rect class="cls-2" x="34.93" y="56.24" width="5.35" height="5.35" transform="translate(-16.36 14.5) rotate(-18)"/><rect class="cls-2" x="112.2" y="95.61" width="5.35" height="5.35" transform="translate(-24.75 40.3) rotate(-18)"/><rect class="cls-2" x="30.74" y="82.71" width="5.35" height="5.35" transform="translate(-55.3 62.23) rotate(-54)"/><rect class="cls-2" x="134.25" y="94.27" width="9.43" height="9.43" transform="translate(-29.79 73.89) rotate(-27)"/><rect class="cls-2" x="32.77" y="127.24" width="9.43" height="9.43" transform="translate(-20.19 7.49) rotate(-9.01)"/><rect class="cls-2" x="110.29" y="20.53" width="9.43" height="9.43" transform="translate(-2.53 18.31) rotate(-9.01)"/><rect class="cls-2" x="15.7" y="83.67" width="7.81" height="7.81" transform="translate(-62.76 51.96) rotate(-54)"/><rect class="cls-2" x="57.6" y="27.94" width="6.46" height="6.47" transform="translate(5.44 71.23) rotate(-63.01)"/><rect class="cls-2" x="25.59" y="59.96" width="6.46" height="6.47" transform="translate(-25.54 19.97) rotate(-26.99)"/><rect class="cls-2" x="73.01" y="125.23" width="6.46" height="6.46" transform="translate(-68.51 91.54) rotate(-45)"/><rect class="cls-2" x="112.2" y="56.24" width="5.35" height="5.35" transform="translate(23.35 149.97) rotate(-72)"/><rect class="cls-2" x="42.91" y="106.58" width="5.35" height="5.35"/><rect class="cls-2" x="8.81" y="53.51" width="9.43" height="9.43" transform="translate(-24.96 12.49) rotate(-27)"/><rect class="cls-2" x="8.81" y="94.27" width="9.43" height="9.43" transform="translate(-80.8 66.09) rotate(-63)"/><rect class="cls-2" x="46.31" y="23.6" width="7.81" height="7.81" transform="translate(8.53 66.76) rotate(-72)"/><rect class="cls-2" x="98.37" y="125.79" width="7.81" height="7.81" transform="translate(-52.68 186.88) rotate(-72)"/><rect class="cls-2" x="123.43" y="100.73" width="7.81" height="7.81" transform="matrix(0.95, -0.31, 0.31, 0.95, -26.1, 44.48)"/><rect class="cls-2" x="128.98" y="83.67" width="7.81" height="7.81" transform="translate(-26.09 94.84) rotate(-36)"/><rect class="cls-2" x="123.43" y="48.66" width="7.81" height="7.81" transform="translate(37.99 157.42) rotate(-72)"/><rect class="cls-2" x="112.89" y="34.15" width="7.81" height="7.81"/><rect class="cls-2" x="46.31" y="125.79" width="7.81" height="7.81" transform="translate(-37.62 21.87) rotate(-18)"/><rect class="cls-2" x="81.31" y="131.33" width="7.81" height="7.81" transform="translate(-74.28 124.68) rotate(-54)"/><rect class="cls-2" x="25.59" y="90.78" width="6.47" height="6.46" transform="translate(-68.03 77.02) rotate(-63.01)"/><rect class="cls-2" x="42.91" y="45.26" width="5.35" height="5.35"/><rect class="cls-2" x="30.74" y="69.14" width="5.35" height="5.35" transform="translate(-35.83 33.36) rotate(-36)"/><rect class="cls-2" x="93.25" y="37.29" width="5.35" height="5.35" transform="translate(-7.65 31.59) rotate(-18)"/><rect class="cls-2" x="80.35" y="33.1" width="5.35" height="5.35" transform="translate(-5.17 55.63) rotate(-36)"/><rect class="cls-2" x="104.53" y="98.55" width="4.43" height="4.43" transform="translate(-14.46 17.95) rotate(-9.01)"/><rect class="cls-2" x="111.73" y="76.38" width="4.43" height="4.43" transform="translate(-22.2 103.59) rotate(-45)"/><rect class="cls-2" x="134.25" y="53.51" width="9.43" height="9.43" transform="translate(23.99 155.6) rotate(-63)"/><rect class="cls-2" x="112.89" y="115.24" width="7.81" height="7.81"/><rect class="cls-2" x="21.25" y="48.66" width="7.81" height="7.81" transform="translate(-15.01 10.35) rotate(-18)"/><rect class="cls-2" x="98.37" y="23.6" width="7.81" height="7.81" transform="translate(-3.49 32.96) rotate(-18.01)"/><rect class="cls-2" x="63.37" y="18.06" width="7.81" height="7.81" transform="translate(9.96 63.48) rotate(-54)"/><rect class="cls-2" x="120.43" y="90.78" width="6.46" height="6.47" transform="translate(-29.2 66.38) rotate(-26.99)"/><rect class="cls-2" x="23.15" y="75.37" width="6.46" height="6.46" transform="translate(-47.85 41.67) rotate(-45)"/><rect class="cls-2" x="116.39" y="82.71" width="5.35" height="5.35" transform="translate(-27.45 86.29) rotate(-36)"/><rect class="cls-2" x="53.88" y="114.56" width="5.35" height="5.35" transform="translate(-33.45 23.21) rotate(-18)"/><rect class="cls-2" x="74.03" y="114.09" width="4.43" height="4.43" transform="translate(-59.91 87.98) rotate(-45)"/><rect class="cls-2" x="51.86" y="45.88" width="4.43" height="4.43" transform="translate(-1.89 93.98) rotate(-80.99)"/><rect class="cls-2" x="38.17" y="88.03" width="4.43" height="4.43" transform="translate(-58.36 85.25) rotate(-63)"/><rect class="cls-2" x="31.79" y="34.15" width="7.81" height="7.81"/><rect class="cls-2" x="81.31" y="18.06" width="7.81" height="7.81" transform="translate(3.37 54.28) rotate(-36)"/><rect class="cls-2" x="88.42" y="122.79" width="6.46" height="6.47" transform="translate(-62.24 150.49) rotate(-63.01)"/><rect class="cls-2" x="32.67" y="104.68" width="6.47" height="6.47" transform="translate(-76.3 126.48) rotate(-81)"/><rect class="cls-2" x="113.35" y="46.06" width="6.47" height="6.47" transform="translate(49.66 156.73) rotate(-81)"/><rect class="cls-2" x="104.23" y="106.58" width="5.35" height="5.35"/><rect class="cls-2" x="116.39" y="69.14" width="5.35" height="5.35" transform="translate(-9.02 125.94) rotate(-54)"/><rect class="cls-2" x="66.78" y="118.75" width="5.35" height="5.35" transform="translate(-58.11 64.02) rotate(-36)"/><rect class="cls-2" x="62.37" y="40.52" width="4.43" height="4.43" transform="translate(-2.82 80.88) rotate(-63)"/><rect class="cls-2" x="85.68" y="112.24" width="4.43" height="4.43" transform="translate(-53.99 140.8) rotate(-63)"/><rect class="cls-2" x="96.19" y="106.89" width="4.43" height="4.43" transform="translate(-24.76 189.22) rotate(-80.99)"/><rect class="cls-2" x="38.17" y="64.73" width="4.43" height="4.43" transform="translate(-26 25.64) rotate(-27)"/><rect class="cls-2" x="109.89" y="88.03" width="4.43" height="4.43" transform="translate(-28.76 60.74) rotate(-27)"/><rect class="cls-2" x="43.52" y="98.55" width="4.43" height="4.43" transform="translate(-60.94 130.16) rotate(-80.99)"/><rect class="cls-2" x="96.19" y="45.88" width="4.43" height="4.43" transform="translate(-6.32 16) rotate(-9.01)"/><rect class="cls-2" x="62.38" y="112.24" width="4.43" height="4.43" transform="translate(-44.93 41.81) rotate(-27)"/><rect class="cls-2" x="32.77" y="20.53" width="9.43" height="9.43" transform="translate(6.68 58.31) rotate(-80.99)"/><rect class="cls-2" x="110.29" y="127.24" width="9.43" height="9.43" transform="translate(-33.32 224.88) rotate(-80.99)"/><rect class="cls-2" x="71.53" y="7.94" width="9.43" height="9.43" transform="translate(13.38 57.62) rotate(-45)"/><rect class="cls-2" x="15.7" y="65.73" width="7.81" height="7.81" transform="translate(-37.18 24.82) rotate(-36)"/><rect class="cls-2" x="128.98" y="65.73" width="7.81" height="7.81" transform="translate(-1.56 136.2) rotate(-54)"/><rect class="cls-2" x="31.79" y="115.24" width="7.81" height="7.81"/><rect class="cls-2" x="63.37" y="131.33" width="7.81" height="7.81" transform="translate(-66.64 65.37) rotate(-36)"/><rect class="cls-2" x="102.32" y="115.71" width="6.47" height="6.47" transform="translate(-28.44 204.58) rotate(-81)"/><rect class="cls-2" x="32.67" y="46.06" width="6.47" height="6.47" transform="translate(-7.27 6.23) rotate(-9)"/><rect class="cls-2" x="113.35" y="104.68" width="6.47" height="6.47" transform="translate(-15.45 19.57) rotate(-9)"/><rect class="cls-2" x="88.42" y="27.94" width="6.46" height="6.46" transform="translate(-4.17 45) rotate(-26.99)"/><rect class="cls-2" x="53.88" y="37.29" width="5.35" height="5.35" transform="translate(1.07 81.41) rotate(-72)"/><rect class="cls-2" x="93.25" y="114.56" width="5.35" height="5.35" transform="translate(-45.21 172.25) rotate(-72)"/><rect class="cls-2" x="34.93" y="95.61" width="5.35" height="5.35" transform="translate(-67.49 103.69) rotate(-72)"/><rect class="cls-2" x="104.23" y="45.26" width="5.35" height="5.35"/><rect class="cls-2" x="74.03" y="38.68" width="4.43" height="4.43" transform="translate(-6.59 65.89) rotate(-45)"/><rect class="cls-2" x="43.52" y="54.22" width="4.43" height="4.43" transform="translate(-8.27 7.86) rotate(-9.01)"/><rect class="cls-2" x="36.32" y="76.38" width="4.43" height="4.43" transform="translate(-44.29 50.27) rotate(-45)"/><rect class="cls-2" x="109.89" y="64.73" width="4.43" height="4.43" transform="translate(1.55 136.43) rotate(-63)"/><rect class="cls-2" x="104.53" y="54.22" width="4.43" height="4.43" transform="translate(34.29 153.03) rotate(-80.99)"/><rect class="cls-2" x="51.86" y="106.89" width="4.43" height="4.43" transform="matrix(0.99, -0.16, 0.16, 0.99, -16.41, 9.81)"/><rect class="cls-2" x="85.68" y="40.52" width="4.43" height="4.43" transform="translate(-9.82 44.57) rotate(-27)"/></svg>